# xmcd CD database file
#
# Track frame offsets:
#	150
#	33639
#	61697
#	92769
#	124671
#	154613
#	178328
#	203725
#	230398
#	261517
#
# Disc length: 3589 seconds
#
# Revision: 0
# Processed by: cddbd v1.5.2PL0 Copyright (c) Steve Scherf et al.
# Submitted via: CDex 1.70beta2
#
DISCID=850e030a
DTITLE=Alex Bellegarde - Caminando
DYEAR=2006
DGENRE=Jazz
TTITLE0=Caminando
TTITLE1=Got Lip
TTITLE2=Native 
TTITLE3=Timba Tune 
TTITLE4=Brown's Groove 
TTITLE5=A Blues Or Not 
TTITLE6=Driving On A Rainy Night
TTITLE7=La Vaca
TTITLE8=Desert 
TTITLE9=En moins de deux
EXTD=YEAR: 2006
EXTT0=
EXTT1=
EXTT2=
EXTT3=
EXTT4=
EXTT5=
EXTT6=
EXTT7=
EXTT8=
EXTT9=
PLAYORDER=
